<?xml version="1.0" encoding="UTF-8"?>
<svg version="1.1" xmlns="http://www.w3.org/2000/svg" width="512" height="512">
<path d="M0 0 C0.99705963 0.00215515 1.99411926 0.0043103 3.02139282 0.00653076 C17.5192512 0.05684883 31.6891012 0.39948239 45.9375 3.3125 C46.94619141 3.51117676 47.95488281 3.70985352 48.99414062 3.91455078 C98.61706648 13.89746308 142.30503851 36.42290452 178.9375 71.3125 C179.835896 72.16787354 179.835896 72.16787354 180.75244141 73.04052734 C189.09560078 81.04350112 196.74095187 89.26229841 203.62695312 98.55322266 C204.95547091 100.33662413 206.31110037 102.09659516 207.671875 103.85546875 C215.03116971 113.48116112 221.14519954 123.68109138 226.9375 134.3125 C227.2994043 134.9729834 227.66130859 135.6334668 228.03417969 136.31396484 C245.68881612 168.92858267 256.94510955 206.88348766 257.140625 244.10546875 C257.14768463 245.00587387 257.15474426 245.90627899 257.16201782 246.83396912 C257.38928083 284.32651291 257.38928083 284.32651291 253.9375 301.3125 C253.63948486 302.8277124 253.63948486 302.8277124 253.33544922 304.37353516 C244.55090716 348.03303819 226.11928196 388.49183957 196.9375 422.3125 C196.29167969 423.06917969 195.64585937 423.82585937 194.98046875 424.60546875 C183.96653583 437.17777841 172.14559577 449.1201785 158.66455078 459.03417969 C156.89189667 460.34625446 155.14653121 461.68943348 153.40234375 463.0390625 C143.77569347 470.40336565 133.57215176 476.51843258 122.9375 482.3125 C122.2770166 482.6744043 121.6165332 483.03630859 120.93603516 483.40917969 C88.67482246 500.8725142 50.86905905 512.32813731 14.0234375 512.515625 C13.09937607 512.52268463 12.17531464 512.52974426 11.22325134 512.53701782 C-27.18118819 512.7638042 -27.18118819 512.7638042 -44.0625 509.3125 C-45.57553711 509.01448486 -45.57553711 509.01448486 -47.11914062 508.71044922 C-90.78060026 499.92683731 -131.24045022 481.49548075 -165.0625 452.3125 C-166.19751953 451.34376953 -166.19751953 451.34376953 -167.35546875 450.35546875 C-179.92777841 439.34153583 -191.8701785 427.52059577 -201.78417969 414.03955078 C-203.09625446 412.26689667 -204.43943348 410.52153121 -205.7890625 408.77734375 C-213.15336565 399.15069347 -219.26843258 388.94715176 -225.0625 378.3125 C-225.4244043 377.6520166 -225.78630859 376.9915332 -226.15917969 376.31103516 C-239.80864779 351.09543883 -248.6959618 323.60217021 -253.0625 295.3125 C-253.33066528 293.61903442 -253.33066528 293.61903442 -253.60424805 291.89135742 C-255.25404609 280.34277113 -255.42026481 268.90230001 -255.375 257.25 C-255.37284485 256.25294037 -255.3706897 255.25588074 -255.36846924 254.22860718 C-255.31815902 239.73301277 -254.98391549 225.55765521 -252.0625 211.3125 C-251.85850586 210.28785645 -251.65451172 209.26321289 -251.44433594 208.20751953 C-239.28216551 148.43231071 -207.40676917 91.41682708 -158.0625 54.3125 C-157.43182617 53.83248535 -156.80115234 53.3524707 -156.15136719 52.85791016 C-144.96666112 44.38472691 -133.39475669 36.99879383 -121.0625 30.3125 C-120.40636719 29.95349609 -119.75023437 29.59449219 -119.07421875 29.22460938 C-93.85447886 15.57044378 -66.35816474 6.67996347 -38.0625 2.3125 C-36.93352295 2.13372314 -35.8045459 1.95494629 -34.64135742 1.77075195 C-23.09277113 0.12095391 -11.65230001 -0.04526481 0 0 Z " fill="#F7931A" transform="translate(255.0625,-0.31250000000000006)"/>
<path d="M0 0 C6.59525453 0.57899813 12.6891618 1.79734737 19.0625 3.5625 C19.92810547 3.79646484 20.79371094 4.03042969 21.68554688 4.27148438 C23.79197695 4.8417334 25.89622889 5.42001834 28 6 C27.42012035 12.15955113 26.44003892 17.97777925 24.93359375 23.97265625 C24.73524429 24.78117538 24.53689484 25.58969452 24.33253479 26.42271423 C23.70617999 28.97065753 23.07199092 31.51657201 22.4375 34.0625 C22.0079409 35.80390762 21.57889972 37.54544308 21.15039062 39.28710938 C20.10623457 43.52623924 19.05505448 47.76357004 18 52 C18.8768042 52.13132324 19.7536084 52.26264648 20.65698242 52.39794922 C21.81560791 52.57342285 22.9742334 52.74889648 24.16796875 52.9296875 C25.31289795 53.10226074 26.45782715 53.27483398 27.63745117 53.45263672 C31.80923598 54.13172926 35.88843303 55.02437394 40 56 C40.09869385 55.39881348 40.1973877 54.79762695 40.29907227 54.17822266 C41.67021376 46.22221648 43.47246336 38.38792678 45.40405273 30.55322266 C45.76372229 29.0845857 46.11743931 27.61447981 46.46557617 26.14306641 C46.9736738 23.99576876 47.49840964 21.85318465 48.02734375 19.7109375 C48.33406006 18.44556152 48.64077637 17.18018555 48.95678711 15.87646484 C49.30104736 14.92723145 49.64530762 13.97799805 50 13 C53.53191431 11.82269523 54.90540337 12.25411528 58.47265625 13.14453125 C59.53677734 13.40943359 60.60089844 13.67433594 61.69726562 13.94726562 C63.36305664 14.37555664 63.36305664 14.37555664 65.0625 14.8125 C66.17689453 15.08642578 67.29128906 15.36035156 68.43945312 15.64257812 C76.74217482 17.74217482 76.74217482 17.74217482 79 20 C78.73974609 22.14453125 78.73974609 22.14453125 78.0234375 24.8125 C77.76643066 25.79774658 77.50942383 26.78299316 77.24462891 27.7980957 C76.95765137 28.85472412 76.67067383 29.91135254 76.375 31 C75.80545965 33.18051189 75.2377689 35.36150768 74.671875 37.54296875 C74.24551758 39.17371338 74.24551758 39.17371338 73.81054688 40.83740234 C72.66401538 45.3109472 71.62405909 49.8040222 70.625 54.3125 C70.45790527 55.05177734 70.29081055 55.79105469 70.11865234 56.55273438 C69.48255892 59.43599352 69 62.03710211 69 65 C69.51796143 65.21092285 70.03592285 65.4218457 70.56958008 65.63916016 C83.99994674 71.13292683 96.89205155 76.42629857 108 86 C108.68964844 86.58265625 109.37929688 87.1653125 110.08984375 87.765625 C116.99135015 94.07103199 123.46788169 103.47074946 124.14526367 113.05541992 C124.17008213 115.43292186 124.1856583 117.80985898 124.1875 120.1875 C124.19974609 121.00025391 124.21199219 121.81300781 124.22460938 122.65039062 C124.25705296 136.24425367 119.73600147 149.63675517 110.41015625 159.71875 C104.56443212 165.11057084 97.01455194 169.36727221 89 170 C89 170.66 89 171.32 89 172 C89.70125 172.2475 90.4025 172.495 91.125 172.75 C103.67160854 178.20504719 111.91876241 188.36827929 117.171875 200.765625 C118.27979783 205.0927953 118.34179255 209.17462445 118.3125 213.625 C118.30686035 214.51727295 118.3012207 215.4095459 118.29541016 216.32885742 C118.16831105 223.263309 117.33123682 229.43572791 115 236 C114.36191406 237.83498047 114.36191406 237.83498047 113.7109375 239.70703125 C110.84599903 247.56276132 107.38427919 254.53664006 102 261 C101.35546875 261.77988281 100.7109375 262.55976563 100.046875 263.36328125 C90.05503689 274.37280657 74.95065476 280.08271586 60.30273438 281.20703125 C45.34386481 281.9169437 28.34657052 281.78219017 14 277 C13.87689453 278.14291504 13.75378906 279.28583008 13.62695312 280.46337891 C13.06587647 284.93395226 12.08035768 289.22422499 10.96875 293.5859375 C10.77277222 294.36893219 10.57679443 295.15192688 10.37487793 295.95864868 C9.96358241 297.59783287 9.55002083 299.23645001 9.13427734 300.87451172 C8.49679131 303.38764951 7.86699521 305.90262365 7.23828125 308.41796875 C6.83638376 310.01573732 6.43405551 311.61339761 6.03125 313.2109375 C5.84268433 313.96297455 5.65411865 314.7150116 5.45983887 315.48983765 C4.1161316 320.7677368 4.1161316 320.7677368 3 323 C-3.34405026 322.35521919 -9.3329118 321.03753669 -15.5 319.4375 C-16.4178125 319.20353516 -17.335625 318.96957031 -18.28125 318.72851562 C-20.52197923 318.15666285 -22.76147688 317.58041707 -25 317 C-21.60908327 301.26698883 -17.81009437 285.63552218 -14 270 C-17.10311638 269.32838005 -20.20765168 268.66356325 -23.3125 268 C-24.19357422 267.80921875 -25.07464844 267.6184375 -25.98242188 267.421875 C-27.25375977 267.15117188 -27.25375977 267.15117188 -28.55078125 266.875 C-29.33106689 266.70742188 -30.11135254 266.53984375 -30.9152832 266.3671875 C-33.13961908 265.91326853 -33.13961908 265.91326853 -36 266 C-36.29769287 267.26183105 -36.59538574 268.52366211 -36.90209961 269.82373047 C-38.00474061 274.49457177 -39.11063631 279.16463733 -40.2175293 283.83447266 C-40.69661189 285.85769903 -41.17480544 287.88113613 -41.65209961 289.90478516 C-42.33735599 292.80947522 -43.02578104 295.71339837 -43.71484375 298.6171875 C-44.03520851 299.97975174 -44.03520851 299.97975174 -44.36204529 301.36984253 C-44.56217728 302.21056305 -44.76230927 303.05128357 -44.96850586 303.91748047 C-45.23164833 305.03000687 -45.23164833 305.03000687 -45.50010681 306.16500854 C-46 308 -46 308 -47 310 C-53.59525453 309.42100187 -59.6891618 308.20265263 -66.0625 306.4375 C-66.92810547 306.20353516 -67.79371094 305.96957031 -68.68554688 305.72851562 C-70.79197695 305.1582666 -72.89622889 304.57998166 -75 304 C-74.42802811 297.93253121 -73.48232716 292.21393306 -71.96875 286.31640625 C-71.67478333 285.14403664 -71.67478333 285.14403664 -71.37487793 283.94798279 C-70.96412634 282.31463602 -70.55056495 280.68199343 -70.13427734 279.05004883 C-69.49579895 276.54602408 -68.86634994 274.03985703 -68.23828125 271.53320312 C-67.8364564 269.93997321 -67.43413087 268.34686946 -67.03125 266.75390625 C-66.84268433 266.00500626 -66.65411865 265.25610626 -66.45983887 264.48451233 C-65.11672368 259.23344737 -65.11672368 259.23344737 -64 257 C-65.26529541 256.72293213 -66.53059082 256.44586426 -67.83422852 256.16040039 C-73.12342324 254.98447194 -78.3883731 253.71711498 -83.65234375 252.43359375 C-85.12435997 252.07516136 -85.12435997 252.07516136 -86.62611389 251.70948792 C-88.68258892 251.20828365 -90.73893804 250.70656254 -92.79516602 250.2043457 C-95.95205445 249.43394818 -99.10980095 248.66713602 -102.26757812 247.90039062 C-104.27088693 247.41167797 -106.27414402 246.92275331 -108.27734375 246.43359375 C-109.22310776 246.20441757 -110.16887177 245.97524139 -111.14329529 245.73912048 C-112.01502884 245.52542313 -112.88676239 245.31172577 -113.78491211 245.09155273 C-114.55274521 244.90439194 -115.32057831 244.71723114 -116.11167908 244.5243988 C-118 244 -118 244 -120 243 C-117.72578162 235.75423446 -114.88273904 228.87948128 -111.8125 221.9375 C-111.34908203 220.88111328 -110.88566406 219.82472656 -110.40820312 218.73632812 C-109.2756523 216.15598036 -108.13952397 213.57727399 -107 211 C-105.06452135 211.30623473 -103.12975829 211.61699469 -101.1953125 211.9296875 C-100.11781738 212.10226074 -99.04032227 212.27483398 -97.93017578 212.45263672 C-95 213 -95 213 -91.875 214.125 C-87.6677329 215.40547259 -83.31860611 215.97870154 -79 215 C-74.83654245 211.49042686 -73.21797057 208.73807092 -71.92285156 203.48608398 C-71.76084951 202.85001126 -71.59884747 202.21393854 -71.43193626 201.55859089 C-70.90140638 199.4582184 -70.39605067 197.35263506 -69.890625 195.24609375 C-69.51996419 193.75801763 -69.1477294 192.27033279 -68.77401733 190.78302002 C-67.78332694 186.82231668 -66.8140094 182.85667405 -65.84888458 178.88967514 C-64.85104754 174.80396101 -63.83366151 170.72312599 -62.81787109 166.6418457 C-61.2337285 160.26816408 -59.65985561 153.89204799 -58.09472656 147.51367188 C-56.40837961 140.64337323 -54.69802153 133.77954654 -52.9609375 126.921875 C-52.75041748 126.08942764 -52.53989746 125.25698029 -52.32299805 124.39930725 C-51.93462076 122.86368544 -51.54615839 121.32808515 -51.15759277 119.79251099 C-50.98183716 119.09785736 -50.80608154 118.40320374 -50.625 117.6875 C-50.45826782 117.02869843 -50.29153564 116.36989685 -50.11975098 115.69113159 C-49.05367576 111.46685242 -48.01707889 107.23633027 -47 103 C-46.82158569 102.26622131 -46.64317139 101.53244263 -46.45935059 100.77642822 C-45.88606507 98.40166024 -45.32815646 96.02369836 -44.7734375 93.64453125 C-44.59656403 92.91795822 -44.41969055 92.19138519 -44.23745728 91.4427948 C-42.85907896 85.41396745 -41.9496079 79.15117629 -43.9375 73.1875 C-51.06876525 65.62403685 -65.15924335 63.47835343 -75 62 C-74.36617071 55.2605493 -72.77702547 49.00449379 -70.9375 42.5 C-70.51500977 40.98019531 -70.51500977 40.98019531 -70.08398438 39.4296875 C-69.39434817 36.95167266 -68.69958811 34.47522 -68 32 C-59.85883698 32.48744603 -52.25002885 34.26081542 -44.375 36.3125 C-43.14402588 36.62646729 -41.91305176 36.94043457 -40.64477539 37.26391602 C-37.09489887 38.16977557 -33.54725606 39.08394179 -30 40 C-26.81381333 40.81776757 -23.62616315 41.62945596 -20.4375 42.4375 C-19.23996094 42.74558594 -18.04242188 43.05367187 -16.80859375 43.37109375 C-13.99177368 44.10925546 -13.99177368 44.10925546 -11 44 C-7.90516475 31.82222644 -4.81866259 19.65183899 -2.20605469 7.35986328 C-1.09805962 2.19611924 -1.09805962 2.19611924 0 0 Z " fill="#FEFEFD" transform="translate(245,90)"/>
<path d="M0 0 C4.68764644 0.52911872 9.13157726 1.1583471 13.6875 2.41796875 C15.2187854 2.84057983 15.2187854 2.84057983 16.78100586 3.27172852 C17.84327393 3.57393311 18.90554199 3.8761377 20 4.1875 C21.1041626 4.50066162 22.2083252 4.81382324 23.34594727 5.13647461 C59.81527694 15.65703654 59.81527694 15.65703654 70 31.0625 C73.43578163 37.88747638 73.00136156 45.61168021 71.3359375 52.91015625 C68.93684046 59.82581424 65.12940376 63.72700076 58.79296875 67.21484375 C44.67583435 73.97279054 26.11033035 71.95251562 11.28125 68.52685547 C8.58771841 67.90478342 5.88788754 67.3142405 3.1875 66.72265625 C-0.72923686 65.85531139 -4.64458812 64.98277167 -8.5546875 64.0859375 C-9.36405762 63.9007959 -10.17342773 63.7156543 -11.00732422 63.52490234 C-13 63 -13 63 -15 62 C-12.03213699 48.21817462 -8.6970455 34.54400823 -5.25 20.875 C-4.73805803 18.83729565 -4.22633804 16.79953552 -3.71484375 14.76171875 C-2.47911081 9.84050146 -1.24041081 4.9200402 0 0 Z " fill="#F7931B" transform="translate(233,259)"/>
<path d="M0 0 C20.00808824 2.40247457 42.75420776 8.05965278 56.40625 23.75390625 C60.84255962 30.00605829 60.83648691 36.57510074 60 44 C57.63746968 51.5134548 53.76142395 56.03755347 47.09765625 60.18359375 C29.85439072 68.94159681 4.36029031 61.49835561 -13 56 C-11.73670104 48.61668106 -10.20313764 41.35090758 -8.3984375 34.08203125 C-8.0364476 32.60714485 -8.0364476 32.60714485 -7.66714478 31.10246277 C-6.90618364 28.0050392 -6.14067703 24.90876079 -5.375 21.8125 C-4.85386379 19.69473597 -4.33302776 17.57689804 -3.8125 15.45898438 C-2.54513083 10.30513144 -1.27404196 5.15220722 0 0 Z " fill="#F7931B" transform="translate(254,175)"/>
</svg>
